# AST/ASF file generated using VICON BodyLanguage
# -----------------------------------------------
:version 1.10
:name VICON
:units
  mass 1.0
  length 0.45
  angle deg
:documentation
   .ast/.asf automatically generated from VICON data using
   VICON BodyBuilder and BodyLanguage model FoxedUp or BRILLIANT.MOD
:root
   order TX TY TZ RX RY RZ
   axis XYZ
   position 0 0 0  
   orientation 0 0 0 
:bonedata
  begin
     id 1 
     name lhipjoint
     direction 0.54267 -0.795011 0.271047 
     length 2.39899 
     axis 0 0 0  XYZ
  end
  begin
     id 2 
     name lfemur
     direction 0.34202 -0.939693 0  
     length 7.49701  
     axis 0 0 20  XYZ
    dof rx ry rz
    limits (-160.0 20.0)
           (-70.0 70.0)
           (-60.0 70.0)
  end
  begin
     id 3 
     name ltibia
     direction 0.34202 -0.939693 0   
     length 8.1668   
     axis 0 0 20   XYZ
    dof rx
    limits (-10.0 170.0)
  end
  begin
     id 4 
     name lfoot
     direction 0.0736283 -0.202292 0.976554   
     length 2.13544   
     axis -90 7.62852e-016 20   XYZ
    dof rx rz
    limits (-45.0 90.0)
           (-70.0 20.0)
  end
  begin
     id 5 
     name ltoes
     direction 1.53557e-011 -4.22024e-011 1   
     length 1.07411   
     axis -90 7.62852e-016 20   XYZ
    dof rx
    limits (-90.0 20.0)
  end
  begin
     id 6 
     name rhipjoint
     direction -0.538061 -0.797813 0.272002   
     length 2.39057  
     axis 0 0 0  XYZ 
  end
  begin
     id 7 
     name rfemur
     direction -0.34202 -0.939693 0   
     length 7.50152   
     axis 0 0 -20   XYZ
    dof rx ry rz
    limits (-160.0 20.0)
           (-70.0 70.0)
           (-70.0 60.0)
  end
  begin
     id 8 
     name rtibia
     direction -0.34202 -0.939693 0   
     length 8.05793   
     axis 0 0 -20   XYZ
    dof rx
    limits (-10.0 170.0)
 end
 begin
     id 9 
     name rfoot
     direction -0.0765195 -0.210236 0.974652   
     length 2.28698  
     axis -90 -7.62852e-016 -20   XYZ
    dof rx rz
    limits (-45.0 90.0)
           (-20.0 70.0)
  end
  begin
     id 10 
     name rtoes
     direction -1.53542e-011 -4.21847e-011 1   
     length 1.14762   
     axis -90 -7.62852e-016 -20   XYZ
    dof rx
    limits (-90.0 20.0)
  end
  begin
     id 11 
     name lowerback
     direction -0.0217239 0.996592 -0.0795765   
     length 2.08176   
     axis 0 0 0   XYZ
    dof rx ry rz
    limits (-20.0 45.0)
           (-30.0 30.0)
           (-30.0 30.0)
  end
  begin
     id 12 
     name upperback
     direction -0.00563773 0.999651 -0.0258155   
     length 2.08898   
     axis 0 0 0   XYZ
    dof rx ry rz
    limits (-20.0 45.0)
           (-30.0 30.0)
           (-30.0 30.0)
  end
  begin
     id 13 
     name thorax
     direction 0.0032706 0.999923 0.0119599   
     length 2.0968   
     axis 0 0 0   XYZ
    dof rx ry rz
    limits (-20.0 45.0)
           (-30.0 30.0)
           (-30.0 30.0)
  end
  begin
     id 14 
     name lowerneck
     direction -0.0285886 0.99568 0.0883427   
     length 1.81272   
     axis 0 0 0   XYZ
    dof rx ry rz
    limits (-20.0 45.0)
           (-30.0 30.0)
           (-30.0 30.0)
  end
  begin
     id 15 
     name upperneck
     direction 0.0807535 0.97985 -0.18268   
     length 1.82518   
     axis 0 0 0   XYZ
    dof rx ry rz
    limits (-20.0 45.0)
           (-30.0 30.0)
           (-30.0 30.0)
  end
  begin
     id 16
     name head
     direction 0.0236605 0.997053 -0.0729767  
     length 1.84443  
     axis 0 0 0   XYZ
    dof rx ry rz
    limits (-20.0 45.0)
           (-30.0 30.0)
           (-30.0 30.0)
  end
  begin
     id 17 
     name lclavicle
     direction 0.918986 0.39378 -0.0200683  
     length 3.27822  
     axis 0 0 0   XYZ
    dof ry rz
    limits (-20.0 10.0)
           (0.0 20.0)
  end
  begin
     id 18 
     name lhumerus
     direction 1 -4.4897e-011 2.09544e-027   
     length 5.5568   
     axis 180 -30 -90   XYZ
    dof rx ry rz
    limits (-60.0 90.0)
           (-90.0 90.0)
           (-90.0 90.0)
  end
  begin
     id 19
     name lradius
     direction 1 -4.48957e-011 -1.27696e-026   
     length 3.63979   
     axis 180 -30 -90   XYZ
    dof rx
    limits (-10.0 170.0)
  end
  begin
     id 20
     name lwrist
     direction 1 -4.49001e-011 -1.49001e-026   
     length 1.8199   
     axis 9.0955e-015 90 90   XYZ
    dof ry
    limits (-180.0 0.0)
 end
  begin
     id 21 
     name lhand
     direction 1 -4.48709e-011 -2.9758e-026   
     length 0.569419   
     axis 1.90115e-014 90 90   XYZ
    dof rx rz
    limits (-90.0 90.0)
           (-45.0 45.0)
  end
  begin
     id 22 
     name lfingers
     direction 1 -4.49175e-011 -5.96505e-026   
     length 0.45908   
     axis 3.80223e-014 90 90   XYZ
    dof rx
    limits (0.0 90.0)
  end
  begin
     id 23
     name lthumb
     direction 0.707107 -6.34864e-011 0.707107   
     length 0.65915   
     axis -90 45 -3.84942e-014   XYZ
    dof rx rz
    limits (-45.0 45.0)
           (-45.0 45.0)
  end
  begin
     id 24 
     name rclavicle
     direction -0.911913 0.396426 -0.106115   
     length 3.46301  
     axis 0 0 0   XYZ 
    dof ry rz
    limits (-10.0 20.0)
           (-20.0 0.0)
  end
  begin
     id 25 
     name rhumerus
     direction -1 -4.48965e-011 7.78516e-028  
     length 5.34339   
     axis 180 30 90   XYZ
    dof rx ry rz
    limits (-90.0 60.0)
           (-90.0 90.0)
           (-90.0 90.0)
  end
  begin
     id 26 
     name rradius
     direction -1 -4.48948e-011 -5.79823e-027   
     length 3.65101   
     axis 180 30 90   XYZ
    dof rx
    limits (-10.0 170.0)
  end
  begin
     id 27 
     name rwrist
     direction -1 -4.48995e-011 -1.48996e-026   
     length 1.8255   
     axis 9.0955e-015 -90 -90   XYZ
    dof ry
    limits (-180.0 0.0)
  end
  begin
     id 28
     name rhand
     direction -1 -4.48957e-011 -2.97937e-026   
     length 0.694249   
     axis 1.90115e-014 -90 -90   XYZ
    dof rx rz
    limits (-90.0 90.0)
           (-45.0 45.0)
  end
  begin
     id 29
     name rfingers
     direction -1 -4.4898e-011 -5.95943e-026   
     length 0.559721   
     axis 3.80223e-014 -90 -90   XYZ
    dof rx
    limits (0.0 90.0)
  end
  begin
     id 30
     name rthumb
     direction -0.707107 -6.34969e-011 0.707107   
     length 0.803651   
     axis -90 -45 3.84942e-014   XYZ
    dof rx rz
    limits (-45.0 45.0)
           (-45.0 45.0)
  end
:hierarchy
  begin
    root lhipjoint rhipjoint lowerback
    lhipjoint lfemur
    lfemur ltibia
    ltibia lfoot
    lfoot ltoes
    rhipjoint rfemur
    rfemur rtibia
    rtibia rfoot
    rfoot rtoes
    lowerback upperback
    upperback thorax
    thorax lowerneck lclavicle rclavicle
    lowerneck upperneck
    upperneck head
    lclavicle lhumerus
    lhumerus lradius
    lradius lwrist
    lwrist lhand lthumb
    lhand lfingers
    rclavicle rhumerus
    rhumerus rradius
    rradius rwrist
    rwrist rhand rthumb
    rhand rfingers
  end

#!OML:ASF H:\Terrain\Walking\May29\JustinRory\rory.ASF
:FULLY-SPECIFIED
:DEGREES
127
root 12.6985 18.554 -6.08764 -2.61237 -21.9313 2.36167
lowerback 0.0171015 0.626673 -5.37664
upperback 0.54797 0.851528 -1.80915
thorax 0.503131 0.402281 1.15692
lowerneck -8.81227 -7.26348 -8.9384
upperneck 22.4037 -10.6163 8.16512
head 9.41473 -4.98105 3.0936
rclavicle 1.85553e-014 2.62396e-014
rhumerus -51.1613 24.31 -103.951
rradius 96.3665
rwrist -12.434
rhand -29.8581 31.973
rfingers 7.12502
rthumb -3.18038 2.01701
lclavicle 1.85553e-014 2.62396e-014
lhumerus -34.6296 22.9773 58.6412
lradius 45.9436
lwrist 179.227
lhand -23.5126 -22.7042
lfingers 7.12502
lthumb 2.94802 7.25516
rfemur -7.30622 4.28942 12.6484
rtibia 34.0467
rfoot -13.8607 -10.5645
rtoes 0.0298363
lfemur -11.9318 -6.66976 -19.865
ltibia 23.0767
lfoot -11.3193 12.2228
ltoes 3.04282
128
root 12.6891 18.5488 -6.11158 -2.38811 -22.0643 1.93312
lowerback 0.045129 0.698209 -4.92698
upperback 0.525307 0.943201 -1.63223
thorax 0.462443 0.45141 1.08759
lowerneck -8.69876 -7.2769 -9.11921
upperneck 21.9666 -10.6322 8.42007
head 9.26783 -4.98478 3.21156
rclavicle -2.95071e-015 4.77083e-015
rhumerus -51.6605 24.3752 -103.909
rradius 97.2789
rwrist -12.2612
rhand -30.3848 32.5637
rfingers 7.12502
rthumb -3.68901 2.61585
lclavicle -2.95071e-015 4.77083e-015
lhumerus -33.9745 22.4971 59.2193
lradius 46.8356
lwrist 180.057
lhand -22.9293 -21.6149
lfingers 7.12502
lthumb 3.51136 8.33596
rfemur -7.01027 4.72316 13.1756
rtibia 33.5642
rfoot -13.6165 -10.7068
rtoes -1.06496
lfemur -12.1476 -6.38485 -19.2299
ltibia 23.2415
lfoot -11.3525 11.6775
ltoes 3.21943
129
root 12.6803 18.5351 -6.12602 -2.43476 -22.0988 1.77261
lowerback 0.162057 0.644268 -4.76018
upperback 0.550123 0.864609 -1.49414
thorax 0.426848 0.413245 1.13486
lowerneck -8.63691 -7.18009 -9.24506
upperneck 21.6289 -10.4889 8.59769
head 9.14179 -4.91524 3.31266
rclavicle -3.97569e-014 1.98785e-015
rhumerus -52.3851 24.5414 -103.936
rradius 98.1873
rwrist -12.1126
rhand -29.362 32.1719
rfingers 7.12502
rthumb -2.70134 2.20928
lclavicle -3.97569e-014 1.98785e-015
lhumerus -33.3682 22.1547 59.6419
lradius 47.52
lwrist 180.708
lhand -22.7656 -21.4352
lfingers 7.12502
lthumb 3.6695 8.51293
rfemur -6.42088 5.27704 13.4142
rtibia 33.0719
rfoot -13.5797 -10.7734
rtoes -1.89412
lfemur -12.1391 -6.65934 -18.9541
ltibia 23.4249
lfoot -11.7761 11.5995
ltoes 4.96277
130
root 12.6717 18.5252 -6.1399 -2.39876 -22.257 1.49627
lowerback 0.200014 0.578255 -4.48115
upperback 0.56523 0.77489 -1.35453
thorax 0.42749 0.369422 1.12203
lowerneck -8.77351 -7.10102 -9.12958
upperneck 21.5575 -10.3727 8.56587
head 9.12217 -4.85114 3.29283
rclavicle -1.00635e-014 1.31198e-014
rhumerus -53.2181 24.899 -104.172
rradius 99.0108
rwrist -12.1413
rhand -28.6574 31.1693
rfingers 7.12502
rthumb -2.02082 1.19913
lclavicle -1.00635e-014 1.31198e-014
lhumerus -32.7218 21.9444 59.8471
lradius 48.0624
lwrist 181.513
lhand -22.5974 -19.8585
lfingers 7.12502
lthumb 3.83191 10.0868
rfemur -5.96018 5.90113 13.746
rtibia 32.5616
rfoot -13.4375 -10.7005
rtoes -2.20269
lfemur -12.1801 -7.02534 -18.6331
ltibia 23.5912
lfoot -11.9244 12.0807
ltoes 3.97257
131
root 12.6652 18.5262 -6.14656 -2.40968 -22.569 1.34011
lowerback 0.105881 0.599502 -4.10583
upperback 0.617018 0.810259 -1.37792
thorax 0.536798 0.386345 0.89001
lowerneck -9.10174 -7.04145 -8.77424
upperneck 21.5936 -10.3216 8.52884
head 9.16824 -4.79226 3.21789
rclavicle -2.93766e-014 2.5842e-014
rhumerus -53.9417 25.3232 -104.611
rradius 99.6019
rwrist -12.3414
rhand -29.0398 30.4042
rfingers 7.12502
rthumb -2.39019 0.437832
lclavicle -2.93766e-014 2.5842e-014
lhumerus -32.1458 21.4792 59.9447
lradius 48.8447
lwrist 182.579
lhand -22.053 -18.6656
lfingers 7.12502
lthumb 4.35756 11.2696
rfemur -5.58413 6.27586 13.898
rtibia 32.0666
rfoot -13.0378 -10.557
rtoes -2.1457
lfemur -12.16 -7.23579 -18.4584
ltibia 23.7522
lfoot -12.1163 12.5862
ltoes 3.06144
